<svg xmlns="http://www.w3.org/2000/svg" viewBox="0 0 16 16" width="16px" height="16px"><path fill="#8bb7f0" d="M12 4H13V6H12z"/><path fill="#8bb7f0" d="M15.97,2.2c-0.09-0.6-0.57-1.08-1.17-1.17C14.72,1.01,14.64,1,14.56,1H1.44 C1.36,1,1.28,1.01,1.2,1.03C0.6,1.12,0.12,1.6,0.03,2.2C0.01,2.28,0,2.36,0,2.44v11.12c0,0.08,0.01,0.16,0.03,0.24 c0.09,0.6,0.57,1.08,1.17,1.17C1.28,14.99,1.36,15,1.44,15h13.12c0.08,0,0.16-0.01,0.24-0.03c0.6-0.09,1.08-0.57,1.17-1.17 c0.02-0.08,0.03-0.16,0.03-0.24V2.44C16,2.36,15.99,2.28,15.97,2.2z M14.5,14H9.51c-0.2-0.67-0.35-1.34-0.44-2.03 c1.57-0.1,3.12-0.44,4.61-1l-0.36-0.94c-1.41,0.54-2.87,0.86-4.36,0.95C8.9,10.17,8.92,9.36,9,8.55L9.05,8H7.07 c0.2-1.48,0.51-2.94,0.91-4.36C8.13,3.09,8.3,2.54,8.49,2h6.01C14.78,2,15,2.22,15,2.5v11C15,13.78,14.78,14,14.5,14z"/><path fill="#4e7ab5" d="M13.68 10.97c-1.49.56-3.04.9-4.61 1C8.73 12 8.4 12.01 8.06 12.01H8C7.83 12.01 7.66 12 7.48 12c-1.76-.06-3.5-.4-5.16-1.03l.36-.94c1.55.59 3.18.92 4.84.97.14.01.29.01.44.01.34 0 .67-.01 1-.03 1.49-.09 2.95-.41 4.36-.95L13.68 10.97zM3 4H4V6H3zM12 4H13V6H12z"/><path fill="#4e7ab5" d="M15.97,2.2c-0.12-0.59-0.58-1.05-1.17-1.17C14.7,1.01,14.6,1,14.5,1h-13C1.4,1,1.3,1.01,1.2,1.03 C0.61,1.15,0.15,1.61,0.03,2.2C0.01,2.3,0,2.4,0,2.5v11c0,0.1,0.01,0.2,0.03,0.3c0.12,0.59,0.58,1.05,1.17,1.17 C1.3,14.99,1.4,15,1.5,15h13c0.1,0,0.2-0.01,0.3-0.03c0.59-0.12,1.05-0.58,1.17-1.17c0.02-0.1,0.03-0.2,0.03-0.3v-11 C16,2.4,15.99,2.3,15.97,2.2z M15,13.5c0,0.28-0.22,0.5-0.5,0.5h-13C1.22,14,1,13.78,1,13.5v-11C1,2.22,1.22,2,1.5,2h13 C14.78,2,15,2.22,15,2.5V13.5z"/><path fill="#e1ebf2" d="M14.5,2H8.49C8.3,2.54,8.13,3.09,7.98,3.64C7.58,5.06,7.27,6.52,7.07,8h1.98L9,8.55 c-0.08,0.81-0.1,1.62-0.04,2.43c1.49-0.09,2.95-0.41,4.36-0.95l0.36,0.94c-1.49,0.56-3.04,0.9-4.61,1 c0.09,0.69,0.24,1.36,0.44,2.03h4.99c0.28,0,0.5-0.22,0.5-0.5v-11C15,2.22,14.78,2,14.5,2z M13,6h-1V4h1V6z"/><path fill="#4e7ab5" d="M10.037,15.031h-1.07c-0.12-0.33-0.22-0.66-0.32-1c-0.18-0.65-0.31-1.32-0.4-1.99 c-0.03-0.15-0.04-0.31-0.06-0.46c-0.02-0.18-0.03-0.36-0.04-0.54c-0.05-0.67-0.05-1.34,0-2.01h-2.02l0.06-0.56 c0.21-1.71,0.55-3.42,1.02-5.08c0.13-0.45,0.27-0.91,0.42-1.36c0.1-0.33,0.22-0.67,0.35-1h1.06c-0.13,0.33-0.25,0.66-0.36,1 c-0.19,0.54-0.36,1.09-0.51,1.64c-0.4,1.42-0.71,2.88-0.91,4.36h1.98l-0.05,0.55c-0.08,0.81-0.1,1.62-0.04,2.43 c0.01,0.16,0.02,0.31,0.04,0.47c0.02,0.17,0.04,0.35,0.07,0.52c0.09,0.69,0.24,1.36,0.44,2.03 C9.797,14.371,9.907,14.701,10.037,15.031z"/></svg>